<?xml version='1.0' encoding='utf-8'?>
<svg xmlns="http://www.w3.org/2000/svg" enable-background="new 0 0 3000 3000" version="1.1" viewBox="0 0 3e3 3e3"> <rect width="3e3" height="3e3" fill="#00C7BA"/> <path d="m1656 271.9c9.8-16.4 15.5-35.6 15.5-56.2 0-60.6-49.1-109.7-109.7-109.7s-109.7 49.1-109.7 109.7c0 20.5 5.6 39.7 15.5 56.2h-779v2579.7h1746.4v-2579.7h-779zm-154.4-56.2c0-33.2 26.9-60.2 60.2-60.2 33.2 0 60.2 26.9 60.2 60.2 0 25.6-16 47.5-38.6 56.2h-43.2c-22.6-8.7-38.6-30.5-38.6-56.2z" fill="#00A89D"/> <path d="m1500 44.3c-60.6 0-109.7 49.1-109.7 109.7s49.1 109.7 109.7 109.7 109.7-49.1 109.7-109.7-49.1-109.7-109.7-109.7zm0 169.9c-33.2 0-60.2-26.9-60.2-60.2 0-33.2 26.9-60.2 60.2-60.2s60.2 26.9 60.2 60.2c0 33.2-27 60.2-60.2 60.2z" fill="#596D80"/> <rect x="626.8" y="210.2" width="1746.4" height="2579.7" fill="#641CBC"/> <rect x="687" y="283" width="1626" height="2434" fill="#F9FAFA"/> <path d="m944.3 946.3h-83.1c-22.7 0-41.2-18.5-41.2-41.2v-83.1c0-22.7 18.5-41.2 41.2-41.2h83.1c22.7 0 41.2 18.5 41.2 41.2v83.1c-0.1 22.8-18.5 41.2-41.2 41.2zm-83.1-147.4c-12.8 0-23.2 10.4-23.2 23.2v83.1c0 12.8 10.4 23.2 23.2 23.2h83.1c12.8 0 23.2-10.4 23.2-23.2v-83.1c0-12.8-10.4-23.2-23.2-23.2h-83.1z" fill="#D1D4D9"/> <path d="m944.3 1213.4h-83.1c-22.7 0-41.2-18.5-41.2-41.2v-83.1c0-22.7 18.5-41.2 41.2-41.2h83.1c22.7 0 41.2 18.5 41.2 41.2v83.1c-0.1 22.7-18.5 41.2-41.2 41.2zm-83.1-147.5c-12.8 0-23.2 10.4-23.2 23.2v83.1c0 12.8 10.4 23.2 23.2 23.2h83.1c12.8 0 23.2-10.4 23.2-23.2v-83.1c0-12.8-10.4-23.2-23.2-23.2h-83.1z" fill="#D1D4D9"/> <path d="m944.3 1480.4h-83.1c-22.7 0-41.2-18.5-41.2-41.2v-83.1c0-22.7 18.5-41.2 41.2-41.2h83.1c22.7 0 41.2 18.5 41.2 41.2v83.1c-0.1 22.7-18.5 41.2-41.2 41.2zm-83.1-147.4c-12.8 0-23.2 10.4-23.2 23.2v83.1c0 12.8 10.4 23.2 23.2 23.2h83.1c12.8 0 23.2-10.4 23.2-23.2v-83.1c0-12.8-10.4-23.2-23.2-23.2h-83.1z" fill="#D1D4D9"/> <path d="m944.3 1747.4h-83.1c-22.7 0-41.2-18.5-41.2-41.2v-83.1c0-22.7 18.5-41.2 41.2-41.2h83.1c22.7 0 41.2 18.5 41.2 41.2v83.1c-0.1 22.8-18.5 41.2-41.2 41.2zm-83.1-147.4c-12.8 0-23.2 10.4-23.2 23.2v83.1c0 12.8 10.4 23.2 23.2 23.2h83.1c12.8 0 23.2-10.4 23.2-23.2v-83.1c0-12.8-10.4-23.2-23.2-23.2h-83.1z" fill="#D1D4D9"/> <path d="m944.3 2014.5h-83.1c-22.7 0-41.2-18.5-41.2-41.2v-83.1c0-22.7 18.5-41.2 41.2-41.2h83.1c22.7 0 41.2 18.5 41.2 41.2v83.1c-0.1 22.7-18.5 41.2-41.2 41.2zm-83.1-147.5c-12.8 0-23.2 10.4-23.2 23.2v83.1c0 12.8 10.4 23.2 23.2 23.2h83.1c12.8 0 23.2-10.4 23.2-23.2v-83.1c0-12.8-10.4-23.2-23.2-23.2h-83.1z" fill="#D1D4D9"/> <path d="m944.3 2281.5h-83.1c-22.7 0-41.2-18.5-41.2-41.2v-83.1c0-22.7 18.5-41.2 41.2-41.2h83.1c22.7 0 41.2 18.5 41.2 41.2v83.1c-0.1 22.7-18.5 41.2-41.2 41.2zm-83.1-147.4c-12.8 0-23.2 10.4-23.2 23.2v83.1c0 12.8 10.4 23.2 23.2 23.2h83.1c12.8 0 23.2-10.4 23.2-23.2v-83.1c0-12.8-10.4-23.2-23.2-23.2h-83.1z" fill="#D1D4D9"/> <path d="m944.3 2548.5h-83.1c-22.7 0-41.2-18.5-41.2-41.2v-83.1c0-22.7 18.5-41.2 41.2-41.2h83.1c22.7 0 41.2 18.5 41.2 41.2v83.1c-0.1 22.7-18.5 41.2-41.2 41.2zm-83.1-147.4c-12.8 0-23.2 10.4-23.2 23.2v83.1c0 12.8 10.4 23.2 23.2 23.2h83.1c12.8 0 23.2-10.4 23.2-23.2v-83.1c0-12.8-10.4-23.2-23.2-23.2h-83.1z" fill="#D1D4D9"/> <path d="m902.7 912.8h-0.2c-4.3-0.1-8.3-2.4-10.5-6.1l-43-71.7c-3.6-5.9-1.6-13.6 4.3-17.1s13.6-1.6 17.1 4.3l32.8 54.6 113.8-174.6c3.8-5.8 11.5-7.4 17.3-3.6s7.4 11.5 3.6 17.3l-124.7 191.2c-2.3 3.5-6.3 5.7-10.5 5.7z" fill="#00C95C"/> <path d="m902.7 1179.8h-0.2c-4.3-0.1-8.3-2.4-10.5-6.1l-43-71.7c-3.6-5.9-1.6-13.6 4.3-17.1s13.6-1.6 17.1 4.3l32.8 54.6 113.8-174.6c3.8-5.8 11.5-7.4 17.3-3.6s7.4 11.5 3.6 17.3l-124.8 191.3c-2.2 3.5-6.2 5.6-10.4 5.6z" fill="#00C95C"/> <path d="m902.7 1446.8h-0.2c-4.3-0.1-8.3-2.4-10.5-6.1l-43-71.7c-3.6-5.9-1.6-13.6 4.3-17.1s13.6-1.6 17.1 4.3l32.8 54.6 113.9-174.6c3.8-5.8 11.5-7.4 17.3-3.6s7.4 11.5 3.6 17.3l-124.8 191.3c-2.3 3.5-6.3 5.6-10.5 5.6z" fill="#00C95C"/> <path d="m902.7 1980.9h-0.2c-4.3-0.1-8.3-2.4-10.5-6.1l-43-71.7c-3.6-5.9-1.6-13.6 4.3-17.1s13.6-1.6 17.1 4.3l32.8 54.6 113.9-174.6c3.8-5.8 11.5-7.4 17.3-3.6s7.4 11.5 3.6 17.3l-124.8 191.3c-2.3 3.4-6.3 5.6-10.5 5.6z" fill="#00C95C"/> <path d="m902.7 2247.9h-0.2c-4.3-0.1-8.3-2.4-10.5-6.1l-43-71.7c-3.6-5.9-1.6-13.6 4.3-17.1s13.6-1.6 17.1 4.3l32.8 54.6 113.9-174.6c3.8-5.8 11.5-7.4 17.3-3.6s7.4 11.5 3.6 17.3l-124.8 191.3c-2.3 3.5-6.3 5.6-10.5 5.6z" fill="#00C95C"/> <path d="m916.3 2465.8 32.2-32.2c3.7-3.7 3.7-9.8 0-13.5s-9.8-3.7-13.5 0l-32.2 32.2-32.2-32.2c-3.7-3.7-9.8-3.7-13.5 0s-3.7 9.8 0 13.5l32.2 32.2-32.3 32.2c-3.7 3.7-3.7 9.8 0 13.5s9.8 3.7 13.5 0l32.2-32.2 32.2 32.2c3.7 3.7 9.8 3.7 13.5 0s3.7-9.8 0-13.5l-32.1-32.2z" fill="#ED1C24"/> <path d="m916.3 1664.7 32.2-32.2c3.7-3.7 3.7-9.8 0-13.5s-9.8-3.7-13.5 0l-32.2 32.2-32.2-32.2c-3.7-3.7-9.8-3.7-13.5 0s-3.7 9.8 0 13.5l32.2 32.2-32.2 32.2c-3.7 3.7-3.7 9.8 0 13.5s9.8 3.7 13.5 0l32.2-32.2 32.2 32.2c3.7 3.7 9.8 3.7 13.5 0s3.7-9.8 0-13.5l-32.2-32.2z" fill="#ED1C24"/> <g fill="#DBDEE3"> <rect x="1082.4" y="829.4" width="1146.1" height="17.6"/> <rect x="1082.4" y="1096.8" width="1146.1" height="17.6"/> <rect x="1082.4" y="1364.2" width="1146.1" height="17.6"/> <rect x="1082.4" y="1631.6" width="1146.1" height="17.6"/> <rect x="1082.4" y="1899" width="1146.1" height="17.6"/> <rect x="1082.4" y="2166.4" width="1146.1" height="17.6"/> <rect x="1082.4" y="2433.7" width="1146.1" height="17.6"/> <rect x="1082.4" y="879.6" width="900.5" height="17.6"/> <rect x="1082.4" y="1147" width="900.5" height="17.6"/> <rect x="1082.4" y="1414.4" width="900.5" height="17.6"/> <rect x="1082.4" y="1681.8" width="900.5" height="17.6"/> <rect x="1082.4" y="1949.2" width="900.5" height="17.6"/> <rect x="1082.4" y="2216.6" width="900.5" height="17.6"/> <rect x="1082.4" y="2484" width="900.5" height="17.6"/> </g> <rect x="1272.2" y="170.3" width="455.7" height="225.4" fill="#E6E7E8"/> <rect x="1272.2" y="362.7" width="455.7" height="33" fill="#C5C6C7"/> <rect x="1272.2" y="170.3" width="455.7" height="33" fill="#596D80"/> <g fill="#D9DADB"> <rect x="1311" y="219.3" width="378" height="10.7"/> <rect x="1311" y="248.6" width="378" height="10.7"/> <rect x="1311" y="278" width="378" height="10.7"/> <rect x="1311" y="307.3" width="378" height="10.7"/> <rect x="1311" y="336.6" width="378" height="10.7"/> </g> <g fill="#DBDEE3"> <path d="m2067.2 623.2h-1134.4c-3.1 0-5.6-2.5-5.6-5.6v-3.7c0-3.1 2.5-5.6 5.6-5.6h1134.5c3.1 0 5.6 2.5 5.6 5.6v3.7c0 3.1-2.5 5.6-5.7 5.6z"/> <path d="m2222.9 561.1h-1445.8c-3.1 0-5.6-2.5-5.6-5.6v-3.7c0-3.1 2.5-5.6 5.6-5.6h1445.8c3.1 0 5.6 2.5 5.6 5.6v3.7c0 3.1-2.5 5.6-5.6 5.6z"/> </g> </svg>