<?xml version='1.0' encoding='utf-8'?>
<svg xmlns="http://www.w3.org/2000/svg" enable-background="new 0 0 1920 1080" version="1.1" viewBox="0 0 1920 1080"> <style type="text/css">.st0{fill:#94A4A5;} .st1{fill:#CCD9D7;} .st2{fill:#AEC0BD;} .st3{fill:#EDEEEF;} .st4{fill:#808787;} .st5{fill:#616B6C;} .st6{fill:#CDD6D6;} .st7{fill:#495153;} .st8{fill:#5B6767;} .st9{fill:#324040;} .st10{fill:#495E5E;} .st11{fill:#A9562B;} .st12{fill:#804529;} .st13{fill:#64696B;} .st14{fill:#FFFFFF;} .st15{fill:#AEC6C2;}</style> <rect class="st0" width="1920" height="1080"/> <path class="st1" d="m1305.9 857.9h-758.88c-13.688 0-24.784-11.096-24.784-24.784v-431.51c0-13.688 11.096-24.784 24.784-24.784h758.88c13.688 0 24.784 11.096 24.784 24.784v431.51c0 13.687-11.096 24.783-24.784 24.783z"/> <path class="st2" d="m1330.7 409.67-808.45 336.56v-344.62c0-13.688 11.096-24.784 24.784-24.784h758.88c13.688 0 24.784 11.096 24.784 24.784v8.063z"/> <path class="st3" d="m1344.4 376.82h-837.69c-12.175 0-22.045-9.87-22.045-22.045s9.87-22.045 22.045-22.045h837.69c12.175 0 22.044 9.87 22.044 22.045 0 12.176-9.869 22.045-22.044 22.045z"/> <path class="st3" d="m1188.1 434.88c0-2.726 2.23-4.957 4.957-4.957h31.133c2.726 0 4.957 2.231 4.957 4.957v15.777c0 2.726-2.231 4.957-4.957 4.957h-31.133c-2.726 0-4.957-2.231-4.957-4.957v-15.777z"/> <path class="st3" d="m1132.2 434.88c0-2.726 2.231-4.957 4.957-4.957h31.133c2.726 0 4.957 2.231 4.957 4.957v15.777c0 2.726-2.23 4.957-4.957 4.957h-31.133c-2.726 0-4.957-2.231-4.957-4.957v-15.777z"/> <path class="st3" d="m1076.3 434.88c0-2.726 2.231-4.957 4.957-4.957h31.133c2.726 0 4.957 2.231 4.957 4.957v15.777c0 2.726-2.231 4.957-4.957 4.957h-31.133c-2.726 0-4.957-2.231-4.957-4.957v-15.777z"/> <path class="st3" d="m1020.4 434.88c0-2.726 2.231-4.957 4.957-4.957h31.133c2.726 0 4.957 2.231 4.957 4.957v15.777c0 2.726-2.231 4.957-4.957 4.957h-31.133c-2.726 0-4.957-2.231-4.957-4.957v-15.777z"/> <path class="st3" d="m964.46 434.88c0-2.726 2.231-4.957 4.957-4.957h31.133c2.726 0 4.957 2.231 4.957 4.957v15.777c0 2.726-2.231 4.957-4.957 4.957h-31.133c-2.726 0-4.957-2.231-4.957-4.957v-15.777z"/> <path class="st3" d="m908.54 434.88c0-2.726 2.231-4.957 4.957-4.957h31.133c2.726 0 4.957 2.231 4.957 4.957v15.777c0 2.726-2.231 4.957-4.957 4.957h-31.133c-2.726 0-4.957-2.231-4.957-4.957v-15.777z"/> <path class="st3" d="m852.62 434.88c0-2.726 2.231-4.957 4.957-4.957h31.133c2.726 0 4.957 2.231 4.957 4.957v15.777c0 2.726-2.231 4.957-4.957 4.957h-31.133c-2.726 0-4.957-2.231-4.957-4.957v-15.777z"/> <path class="st3" d="m796.71 434.88c0-2.726 2.231-4.957 4.957-4.957h31.133c2.726 0 4.957 2.231 4.957 4.957v15.777c0 2.726-2.231 4.957-4.957 4.957h-31.133c-2.726 0-4.957-2.231-4.957-4.957v-15.777z"/> <path class="st3" d="m740.79 434.88c0-2.726 2.231-4.957 4.957-4.957h31.133c2.726 0 4.957 2.231 4.957 4.957v15.777c0 2.726-2.231 4.957-4.957 4.957h-31.133c-2.726 0-4.957-2.231-4.957-4.957v-15.777z"/> <path class="st3" d="m684.88 434.88c0-2.726 2.231-4.957 4.957-4.957h31.133c2.726 0 4.957 2.231 4.957 4.957v15.777c0 2.726-2.231 4.957-4.957 4.957h-31.133c-2.726 0-4.957-2.231-4.957-4.957v-15.777z"/> <path class="st3" d="m628.96 434.88c0-2.726 2.231-4.957 4.957-4.957h31.133c2.726 0 4.957 2.231 4.957 4.957v15.777c0 2.726-2.231 4.957-4.957 4.957h-31.133c-2.726 0-4.957-2.231-4.957-4.957v-15.777z"/> <path class="st3" d="m1212.1 467.95h-9.914-9.134-9.913-46.003c-2.726 0-4.957 2.231-4.957 4.957v23.439c0 2.726 2.231 4.957 4.957 4.957h46.003 9.913 9.134 9.914 12.086c2.726 0 4.957-2.231 4.957-4.957v-23.439c0-2.726-2.231-4.957-4.957-4.957h-12.086z"/> <path class="st3" d="m1076.3 472.9c0-2.726 2.231-4.957 4.957-4.957h31.133c2.726 0 4.957 2.231 4.957 4.957v23.439c0 2.726-2.231 4.957-4.957 4.957h-31.133c-2.726 0-4.957-2.231-4.957-4.957v-23.439z"/> <path class="st3" d="m1020.4 472.9c0-2.726 2.231-4.957 4.957-4.957h31.133c2.726 0 4.957 2.231 4.957 4.957v23.439c0 2.726-2.231 4.957-4.957 4.957h-31.133c-2.726 0-4.957-2.231-4.957-4.957v-23.439z"/> <path class="st3" d="m964.46 472.9c0-2.726 2.231-4.957 4.957-4.957h31.133c2.726 0 4.957 2.231 4.957 4.957v23.439c0 2.726-2.231 4.957-4.957 4.957h-31.133c-2.726 0-4.957-2.231-4.957-4.957v-23.439z"/> <path class="st3" d="m908.54 472.9c0-2.726 2.231-4.957 4.957-4.957h31.133c2.726 0 4.957 2.231 4.957 4.957v23.439c0 2.726-2.231 4.957-4.957 4.957h-31.133c-2.726 0-4.957-2.231-4.957-4.957v-23.439z"/> <path class="st3" d="m852.62 472.9c0-2.726 2.231-4.957 4.957-4.957h31.133c2.726 0 4.957 2.231 4.957 4.957v23.439c0 2.726-2.231 4.957-4.957 4.957h-31.133c-2.726 0-4.957-2.231-4.957-4.957v-23.439z"/> <path class="st3" d="m796.71 472.9c0-2.726 2.231-4.957 4.957-4.957h31.133c2.726 0 4.957 2.231 4.957 4.957v23.439c0 2.726-2.231 4.957-4.957 4.957h-31.133c-2.726 0-4.957-2.231-4.957-4.957v-23.439z"/> <path class="st3" d="m740.79 472.9c0-2.726 2.231-4.957 4.957-4.957h31.133c2.726 0 4.957 2.231 4.957 4.957v23.439c0 2.726-2.231 4.957-4.957 4.957h-31.133c-2.726 0-4.957-2.231-4.957-4.957v-23.439z"/> <path class="st3" d="m684.88 472.9c0-2.726 2.231-4.957 4.957-4.957h31.133c2.726 0 4.957 2.231 4.957 4.957v23.439c0 2.726-2.231 4.957-4.957 4.957h-31.133c-2.726 0-4.957-2.231-4.957-4.957v-23.439z"/> <path class="st3" d="m628.96 472.9c0-2.726 2.231-4.957 4.957-4.957h31.133c2.726 0 4.957 2.231 4.957 4.957v23.439c0 2.726-2.231 4.957-4.957 4.957h-31.133c-2.726 0-4.957-2.231-4.957-4.957v-23.439z"/> <path class="st3" d="m1202.7 512.61h-9.762-9.762-14.728c-2.726 0-4.957 2.231-4.957 4.957v23.439c0 2.726 2.23 4.957 4.957 4.957h14.728 9.762 9.762 21.522c2.726 0 4.957-2.231 4.957-4.957v-23.439c0-2.726-2.231-4.957-4.957-4.957h-21.522z"/> <path class="st3" d="m1100.8 517.57c0-2.726 2.23-4.957 4.957-4.957h31.133c2.726 0 4.957 2.231 4.957 4.957v23.439c0 2.726-2.231 4.957-4.957 4.957h-31.133c-2.726 0-4.957-2.231-4.957-4.957v-23.439z"/> <path class="st3" d="m1044.9 517.57c0-2.726 2.231-4.957 4.957-4.957h31.133c2.726 0 4.957 2.231 4.957 4.957v23.439c0 2.726-2.23 4.957-4.957 4.957h-31.133c-2.726 0-4.957-2.231-4.957-4.957v-23.439z"/> <path class="st3" d="m988.94 517.57c0-2.726 2.231-4.957 4.957-4.957h31.133c2.726 0 4.957 2.231 4.957 4.957v23.439c0 2.726-2.231 4.957-4.957 4.957h-31.133c-2.726 0-4.957-2.231-4.957-4.957v-23.439z"/> <path class="st3" d="m933.02 517.57c0-2.726 2.231-4.957 4.957-4.957h31.133c2.726 0 4.957 2.231 4.957 4.957v23.439c0 2.726-2.231 4.957-4.957 4.957h-31.133c-2.726 0-4.957-2.231-4.957-4.957v-23.439z"/> <path class="st3" d="m877.11 517.57c0-2.726 2.231-4.957 4.957-4.957h31.133c2.726 0 4.957 2.231 4.957 4.957v23.439c0 2.726-2.231 4.957-4.957 4.957h-31.133c-2.726 0-4.957-2.231-4.957-4.957v-23.439z"/> <path class="st3" d="m821.19 517.57c0-2.726 2.231-4.957 4.957-4.957h31.133c2.726 0 4.957 2.231 4.957 4.957v23.439c0 2.726-2.231 4.957-4.957 4.957h-31.133c-2.726 0-4.957-2.231-4.957-4.957v-23.439z"/> <path class="st3" d="m765.27 517.57c0-2.726 2.231-4.957 4.957-4.957h31.133c2.726 0 4.957 2.231 4.957 4.957v23.439c0 2.726-2.231 4.957-4.957 4.957h-31.133c-2.726 0-4.957-2.231-4.957-4.957v-23.439z"/> <path class="st3" d="m709.36 517.57c0-2.726 2.231-4.957 4.957-4.957h31.133c2.726 0 4.957 2.231 4.957 4.957v23.439c0 2.726-2.231 4.957-4.957 4.957h-31.133c-2.726 0-4.957-2.231-4.957-4.957v-23.439z"/> <path class="st3" d="m628.96 517.57c0-2.726 2.231-4.957 4.957-4.957h47.548c2.726 0 4.957 2.231 4.957 4.957v23.439c0 2.726-2.231 4.957-4.957 4.957h-47.548c-2.726 0-4.957-2.231-4.957-4.957v-23.439z"/> <path class="st3" d="m1211.7 558.5h-9.913-8.744-9.913-46.003c-2.726 0-4.957 2.231-4.957 4.957v23.439c0 2.726 2.231 4.957 4.957 4.957h46.003 9.913 8.744 9.913 12.476c2.726 0 4.957-2.231 4.957-4.957v-23.439c0-2.726-2.231-4.957-4.957-4.957h-12.476z"/> <path class="st3" d="m1076.3 563.46c0-2.726 2.231-4.957 4.957-4.957h31.133c2.726 0 4.957 2.231 4.957 4.957v23.439c0 2.726-2.231 4.957-4.957 4.957h-31.133c-2.726 0-4.957-2.231-4.957-4.957v-23.439z"/> <path class="st3" d="m1020.4 563.46c0-2.726 2.231-4.957 4.957-4.957h31.133c2.726 0 4.957 2.231 4.957 4.957v23.439c0 2.726-2.231 4.957-4.957 4.957h-31.133c-2.726 0-4.957-2.231-4.957-4.957v-23.439z"/> <path class="st3" d="m964.46 563.46c0-2.726 2.231-4.957 4.957-4.957h31.133c2.726 0 4.957 2.231 4.957 4.957v23.439c0 2.726-2.231 4.957-4.957 4.957h-31.133c-2.726 0-4.957-2.231-4.957-4.957v-23.439z"/> <path class="st3" d="m908.54 563.46c0-2.726 2.231-4.957 4.957-4.957h31.133c2.726 0 4.957 2.231 4.957 4.957v23.439c0 2.726-2.231 4.957-4.957 4.957h-31.133c-2.726 0-4.957-2.231-4.957-4.957v-23.439z"/> <path class="st3" d="m852.62 563.46c0-2.726 2.231-4.957 4.957-4.957h31.133c2.726 0 4.957 2.231 4.957 4.957v23.439c0 2.726-2.231 4.957-4.957 4.957h-31.133c-2.726 0-4.957-2.231-4.957-4.957v-23.439z"/> <path class="st3" d="m796.71 563.46c0-2.726 2.231-4.957 4.957-4.957h31.133c2.726 0 4.957 2.231 4.957 4.957v23.439c0 2.726-2.231 4.957-4.957 4.957h-31.133c-2.726 0-4.957-2.231-4.957-4.957v-23.439z"/> <path class="st3" d="m740.79 563.46c0-2.726 2.231-4.957 4.957-4.957h31.133c2.726 0 4.957 2.231 4.957 4.957v23.439c0 2.726-2.231 4.957-4.957 4.957h-31.133c-2.726 0-4.957-2.231-4.957-4.957v-23.439z"/> <path class="st3" d="m704.64 558.5h-9.914-4.894-9.914-46.003c-2.726 0-4.957 2.231-4.957 4.957v23.439c0 2.726 2.231 4.957 4.957 4.957h46.003 9.914 4.894 9.914 16.325c2.726 0 4.957-2.231 4.957-4.957v-23.439c0-2.726-2.231-4.957-4.957-4.957h-16.325z"/> <path class="st3" d="m1188.1 607.95c0-2.726 2.23-4.957 4.957-4.957h31.133c2.726 0 4.957 2.231 4.957 4.957v23.439c0 2.726-2.231 4.957-4.957 4.957h-31.133c-2.726 0-4.957-2.231-4.957-4.957v-23.439z"/> <path class="st3" d="m1132.2 607.95c0-2.726 2.231-4.957 4.957-4.957h31.133c2.726 0 4.957 2.231 4.957 4.957v23.439c0 2.726-2.23 4.957-4.957 4.957h-31.133c-2.726 0-4.957-2.231-4.957-4.957v-23.439z"/> <path class="st3" d="m1076.3 607.95c0-2.726 2.231-4.957 4.957-4.957h31.133c2.726 0 4.957 2.231 4.957 4.957v23.439c0 2.726-2.231 4.957-4.957 4.957h-31.133c-2.726 0-4.957-2.231-4.957-4.957v-23.439z"/> <path class="st3" d="m1041.7 602.99h-9.913-6.42-9.914-4.957-9.914-31.133-9.914-4.957-9.914-31.133-9.914-4.957-9.914-31.133-9.914-46.003c-2.726 0-4.957 2.231-4.957 4.957v23.439c0 2.726 2.231 4.957 4.957 4.957h46.003 9.914 31.133 9.914 4.957 9.914 31.133 9.914 4.957 9.914 31.133 9.914 4.957 9.914 6.42 9.913 14.799c2.726 0 4.957-2.231 4.957-4.957v-23.439c0-2.726-2.231-4.957-4.957-4.957h-14.799z"/> <path class="st3" d="m740.79 607.95c0-2.726 2.231-4.957 4.957-4.957h31.133c2.726 0 4.957 2.231 4.957 4.957v23.439c0 2.726-2.231 4.957-4.957 4.957h-31.133c-2.726 0-4.957-2.231-4.957-4.957v-23.439z"/> <path class="st3" d="m684.88 607.95c0-2.726 2.231-4.957 4.957-4.957h31.133c2.726 0 4.957 2.231 4.957 4.957v23.439c0 2.726-2.231 4.957-4.957 4.957h-31.133c-2.726 0-4.957-2.231-4.957-4.957v-23.439z"/> <path class="st3" d="m628.96 607.95c0-2.726 2.231-4.957 4.957-4.957h31.133c2.726 0 4.957 2.231 4.957 4.957v23.439c0 2.726-2.231 4.957-4.957 4.957h-31.133c-2.726 0-4.957-2.231-4.957-4.957v-23.439z"/> <path class="st3" d="m1053.9 822.4c0 2.726-2.231 4.957-4.957 4.957h-241.69c-2.726 0-4.957-2.231-4.957-4.957v-152.36c0-2.726 2.231-4.957 4.957-4.957h241.69c2.726 0 4.957 2.231 4.957 4.957v152.36z"/> <path class="st4" d="m99.065 247.49c-8.213 0-14.87 6.658-14.87 14.87v363.72c0 8.213 6.658 14.87 14.87 14.87h122.13v-393.46h-122.13z"/> <path class="st5" d="m343.32 247.49h-122.13v393.46h122.13c8.213 0 14.87-6.658 14.87-14.87v-363.72c1e-3 -8.213-6.657-14.87-14.87-14.87z"/> <rect class="st3" x="107.79" y="274.22" width="226.8" height="340.41"/> <rect class="st6" x="121.58" y="289.26" width="199.24" height="12.531"/> <rect class="st6" x="121.58" y="318.76" width="199.24" height="12.531"/> <rect class="st6" x="121.58" y="348.26" width="199.24" height="12.531"/> <rect class="st6" x="121.58" y="377.76" width="199.24" height="12.531"/> <rect class="st6" x="121.58" y="407.26" width="199.24" height="12.531"/> <rect class="st6" x="121.58" y="436.76" width="199.24" height="12.531"/> <rect class="st6" x="121.58" y="466.26" width="199.24" height="12.531"/> <rect class="st6" x="121.58" y="495.76" width="199.24" height="12.531"/> <rect class="st6" x="121.58" y="525.26" width="199.24" height="12.531"/> <rect class="st6" x="121.58" y="554.76" width="199.24" height="12.531"/> <rect class="st6" x="121.58" y="584.26" width="199.24" height="12.531"/> <path class="st7" d="m276.44 241.22h-25.367c-5.674-11.097-16.918-18.664-29.878-18.664-12.961 0-24.205 7.567-29.878 18.664h-25.368c-5.475 0-9.914 4.438-9.914 9.913v20.271c0 5.475 4.439 9.914 9.914 9.914h110.49c5.475 0 9.913-4.439 9.913-9.914v-20.271c1e-3 -5.475-4.437-9.913-9.912-9.913zm-76.968 0c4.875-7.054 12.784-11.669 21.722-11.669s16.847 4.616 21.722 11.669h-43.444z"/> <polygon class="st3" points="1362.2 438.96 1350.7 472.18 1373.5 472.18"/> <rect class="st8" x="1350.7" y="472.18" width="11.428" height="291.58"/> <rect class="st9" x="1362.1" y="472.18" width="11.428" height="291.58"/> <polygon class="st10" points="1366 450.18 1362.2 438.96 1358.3 450.18"/> <circle class="st11" cx="1532.9" cy="295.85" r="53.116"/> <path class="st12" d="m1532.9 242.74c-15.39 0-29.266 6.586-38.976 17.08 6.914-3.301 14.647-5.154 22.806-5.154 29.288 0 53.116 23.828 53.116 53.116 0 13.898-5.372 26.56-14.14 36.036 17.906-8.549 30.31-26.832 30.31-47.961 0-29.29-23.828-53.117-53.116-53.117z"/> <path class="st3" d="m1532.9 220c-41.89 0-75.848 33.958-75.848 75.848s33.958 75.848 75.848 75.848c20.066 0 38.298-7.806 51.863-20.529l20.576 18.065c1.882 1.652 4.214 2.464 6.536 2.464 2.754 0 5.494-1.141 7.454-3.373l2.521-2.872c3.612-4.114 3.205-10.378-0.909-13.99l-21.622-18.983c6.002-10.86 9.428-23.343 9.428-36.629 1e-3 -41.891-33.957-75.849-75.847-75.849zm0 128.96c-29.288 0-53.116-23.828-53.116-53.116s23.828-53.116 53.116-53.116 53.116 23.828 53.116 53.116-23.828 53.116-53.116 53.116z"/> <path class="st4" d="m1549.5 462.38h54.381v255.8h-54.381c-5.475 0-9.914-4.438-9.914-9.914v-235.98c1e-3 -5.475 4.439-9.913 9.914-9.913z"/> <path class="st13" d="m1603.9 462.38h54.381c5.475 0 9.913 4.438 9.913 9.914v235.98c0 5.475-4.438 9.914-9.913 9.914h-54.381v-255.8z"/> <rect class="st14" x="1551.5" y="491.26" width="104.86" height="194.95"/> <rect class="st14" x="1592.2" y="477.85" width="23.38" height="5.845"/> <rect class="st14" x="1601.6" y="470" width="4.616" height="4.616"/> <circle class="st14" cx="1603.9" cy="702.37" r="11.69"/> <path class="st15" d="m1780.7 487.87h7.229v174.04h-7.229c-20.819 0-37.697-16.878-37.697-37.697v-98.643c0-20.819 16.878-37.697 37.697-37.697z"/> <path class="st14" d="m1795.2 487.87h-7.229v174.04h7.229c20.82 0 37.697-16.878 37.697-37.697v-98.643c0-20.819-16.878-37.697-37.697-37.697z"/> <circle class="st13" cx="1787.9" cy="519.29" r="13.193"/> </svg>